<svg width="213" height="42" viewBox="0 0 213 42" fill="none" xmlns="http://www.w3.org/2000/svg">
<g clip-path="url(#clip0_92_1476)">
<path d="M20.656 4.47524C29.7859 4.47524 37.1807 11.8701 37.1807 21.0001C37.1807 30.13 29.7859 37.5248 20.656 37.5248C11.526 37.5248 4.13119 30.13 4.13119 21.0001C4.13119 11.8701 11.526 4.47524 20.656 4.47524ZM20.656 0.344055C9.25387 0.344055 0 9.59793 0 21.0001C0 32.4021 9.25387 41.656 20.656 41.656C32.058 41.656 41.3119 32.4021 41.3119 21.0001C41.3119 9.59793 32.058 0.344055 20.656 0.344055Z" fill="#1E1E1E"/>
<path d="M15.9877 11.5808L30.4055 20.9173L15.9877 30.2538V11.5808Z" fill="#864AF9"/>
<path d="M57.7679 31.22L49.3119 11.62H54.2119L61.6039 28.98H58.7199L66.2239 11.62H70.7319L62.2479 31.22H57.7679ZM78.5284 31.556C76.9604 31.556 75.4577 31.3507 74.0204 30.94C72.583 30.5107 71.4257 29.96 70.5484 29.288L72.0884 25.872C72.9284 26.4694 73.9177 26.964 75.0564 27.356C76.2137 27.7294 77.3804 27.916 78.5564 27.916C79.4524 27.916 80.171 27.832 80.7124 27.664C81.2724 27.4774 81.683 27.2254 81.9444 26.908C82.2057 26.5907 82.3364 26.2267 82.3364 25.816C82.3364 25.2934 82.131 24.8827 81.7204 24.584C81.3097 24.2667 80.7684 24.0147 80.0964 23.828C79.4244 23.6227 78.6777 23.436 77.8564 23.268C77.0537 23.0814 76.2417 22.8574 75.4204 22.596C74.6177 22.3347 73.8804 21.9987 73.2084 21.588C72.5364 21.1774 71.9857 20.636 71.5564 19.964C71.1457 19.292 70.9404 18.4334 70.9404 17.388C70.9404 16.268 71.239 15.2507 71.8364 14.336C72.4524 13.4027 73.367 12.6654 74.5804 12.124C75.8124 11.564 77.3524 11.284 79.2004 11.284C80.4324 11.284 81.6457 11.4334 82.8404 11.732C84.035 12.012 85.0897 12.4414 86.0044 13.02L84.6044 16.464C83.6897 15.9414 82.775 15.5587 81.8604 15.316C80.9457 15.0547 80.0497 14.924 79.1724 14.924C78.295 14.924 77.5764 15.0267 77.0164 15.232C76.4564 15.4374 76.055 15.708 75.8124 16.044C75.5697 16.3614 75.4484 16.7347 75.4484 17.164C75.4484 17.668 75.6537 18.0787 76.0644 18.396C76.475 18.6947 77.0164 18.9374 77.6884 19.124C78.3604 19.3107 79.0977 19.4974 79.9004 19.684C80.7217 19.8707 81.5337 20.0854 82.3364 20.328C83.1577 20.5707 83.9044 20.8974 84.5764 21.308C85.2484 21.7187 85.7897 22.26 86.2004 22.932C86.6297 23.604 86.8444 24.4534 86.8444 25.48C86.8444 26.5814 86.5364 27.5894 85.9204 28.504C85.3044 29.4187 84.3804 30.156 83.1484 30.716C81.935 31.276 80.395 31.556 78.5284 31.556ZM89.6638 31.22V11.62H94.1998V27.524H104.028V31.22H89.6638Z" fill="#864AF9"/>
<path d="M106.282 31.22V11.62H110.034L118.378 25.452H116.39L124.594 11.62H128.318L128.374 31.22H124.118L124.09 18.144H124.874L118.322 29.148H116.278L109.586 18.144H110.538V31.22H106.282ZM141.676 31.22V28.28L141.396 27.636V22.372C141.396 21.4387 141.107 20.7107 140.528 20.188C139.968 19.6654 139.1 19.404 137.924 19.404C137.122 19.404 136.328 19.5347 135.544 19.796C134.779 20.0387 134.126 20.3747 133.584 20.804L132.016 17.752C132.838 17.1734 133.827 16.7254 134.984 16.408C136.142 16.0907 137.318 15.932 138.512 15.932C140.808 15.932 142.591 16.4734 143.86 17.556C145.13 18.6387 145.764 20.328 145.764 22.624V31.22H141.676ZM137.084 31.444C135.908 31.444 134.9 31.248 134.06 30.856C133.22 30.4454 132.576 29.8947 132.128 29.204C131.68 28.5134 131.456 27.7387 131.456 26.88C131.456 25.984 131.671 25.2 132.1 24.528C132.548 23.856 133.248 23.3334 134.2 22.96C135.152 22.568 136.394 22.372 137.924 22.372H141.928V24.92H138.4C137.374 24.92 136.664 25.088 136.272 25.424C135.899 25.76 135.712 26.18 135.712 26.684C135.712 27.244 135.927 27.692 136.356 28.028C136.804 28.3454 137.411 28.504 138.176 28.504C138.904 28.504 139.558 28.336 140.136 28C140.715 27.6454 141.135 27.132 141.396 26.46L142.068 28.476C141.751 29.4467 141.172 30.184 140.332 30.688C139.492 31.192 138.41 31.444 137.084 31.444ZM153.05 28.14L153.162 22.82L160.19 16.156H165.398L158.65 23.016L156.382 24.864L153.05 28.14ZM149.438 31.22V10.444H153.806V31.22H149.438ZM160.666 31.22L155.57 24.892L158.314 21.504L165.958 31.22H160.666ZM174.489 31.444C172.772 31.444 171.26 31.108 169.953 30.436C168.665 29.764 167.667 28.8494 166.957 27.692C166.248 26.516 165.893 25.1814 165.893 23.688C165.893 22.176 166.239 20.8414 166.929 19.684C167.639 18.508 168.6 17.5934 169.813 16.94C171.027 16.268 172.399 15.932 173.929 15.932C175.404 15.932 176.729 16.2494 177.905 16.884C179.1 17.5 180.043 18.396 180.733 19.572C181.424 20.7294 181.769 22.12 181.769 23.744C181.769 23.912 181.76 24.108 181.741 24.332C181.723 24.5374 181.704 24.7334 181.685 24.92H169.449V22.372H179.389L177.709 23.128C177.709 22.344 177.551 21.6627 177.233 21.084C176.916 20.5054 176.477 20.0574 175.917 19.74C175.357 19.404 174.704 19.236 173.957 19.236C173.211 19.236 172.548 19.404 171.969 19.74C171.409 20.0574 170.971 20.5147 170.653 21.112C170.336 21.6907 170.177 22.3814 170.177 23.184V23.856C170.177 24.6774 170.355 25.4054 170.709 26.04C171.083 26.656 171.596 27.132 172.249 27.468C172.921 27.7854 173.705 27.944 174.601 27.944C175.404 27.944 176.104 27.8227 176.701 27.58C177.317 27.3374 177.877 26.9734 178.381 26.488L180.705 29.008C180.015 29.792 179.147 30.3987 178.101 30.828C177.056 31.2387 175.852 31.444 174.489 31.444ZM184.397 31.22V16.156H188.569V20.412L187.981 19.18C188.429 18.116 189.148 17.3134 190.137 16.772C191.127 16.212 192.331 15.932 193.749 15.932V19.964C193.563 19.9454 193.395 19.936 193.245 19.936C193.096 19.9174 192.937 19.908 192.769 19.908C191.575 19.908 190.604 20.2534 189.857 20.944C189.129 21.616 188.765 22.6707 188.765 24.108V31.22H184.397ZM196.256 31.348C195.829 31.348 195.461 31.204 195.152 30.916C194.853 30.6174 194.704 30.2387 194.704 29.78C194.704 29.3214 194.853 28.9534 195.152 28.676C195.461 28.388 195.829 28.244 196.256 28.244C196.693 28.244 197.061 28.388 197.36 28.676C197.658 28.9534 197.808 29.3214 197.808 29.78C197.808 30.2387 197.658 30.6174 197.36 30.916C197.061 31.204 196.693 31.348 196.256 31.348ZM199.339 31.22V22.612H201.835V31.22H199.339ZM200.587 21.412C200.129 21.412 199.755 21.2787 199.467 21.012C199.179 20.7454 199.035 20.4147 199.035 20.02C199.035 19.6254 199.179 19.2947 199.467 19.028C199.755 18.7614 200.129 18.628 200.587 18.628C201.046 18.628 201.419 18.756 201.707 19.012C201.995 19.2574 202.139 19.5774 202.139 19.972C202.139 20.388 201.995 20.7347 201.707 21.012C201.43 21.2787 201.057 21.412 200.587 21.412ZM208.088 31.348C207.17 31.348 206.354 31.156 205.64 30.772C204.936 30.388 204.376 29.8654 203.96 29.204C203.554 28.532 203.352 27.7694 203.352 26.916C203.352 26.052 203.554 25.2894 203.96 24.628C204.376 23.956 204.936 23.4334 205.64 23.06C206.354 22.676 207.17 22.484 208.088 22.484C208.994 22.484 209.805 22.676 210.52 23.06C211.234 23.4334 211.794 23.9507 212.2 24.612C212.605 25.2734 212.808 26.0414 212.808 26.916C212.808 27.7694 212.605 28.532 212.2 29.204C211.794 29.8654 211.234 30.388 210.52 30.772C209.805 31.156 208.994 31.348 208.088 31.348ZM208.088 29.3C208.504 29.3 208.877 29.204 209.208 29.012C209.538 28.82 209.8 28.548 209.992 28.196C210.184 27.8334 210.28 27.4067 210.28 26.916C210.28 26.4147 210.184 25.988 209.992 25.636C209.8 25.284 209.538 25.012 209.208 24.82C208.877 24.628 208.504 24.532 208.088 24.532C207.672 24.532 207.298 24.628 206.968 24.82C206.637 25.012 206.37 25.284 206.168 25.636C205.976 25.988 205.88 26.4147 205.88 26.916C205.88 27.4067 205.976 27.8334 206.168 28.196C206.37 28.548 206.637 28.82 206.968 29.012C207.298 29.204 207.672 29.3 208.088 29.3Z" fill="#1E1E1E"/>
</g>
<defs>
<clipPath id="clip0_92_1476">
<rect width="212.808" height="41.3119" fill="white" transform="translate(0 0.344055)"/>
</clipPath>
</defs>
</svg>
